/* XPM */
static char * main_xpm[] = {
"16 16 118 2",
"  	c None",
". 	c #FFFFFF",
"+ 	c #FEFEFE",
"@ 	c #CACACA",
"# 	c #9A9A9A",
"$ 	c #ACACAC",
"% 	c #E3E3E3",
"& 	c #8F8F8F",
"* 	c #383838",
"= 	c #292929",
"- 	c #242424",
"; 	c #3B3B3B",
"> 	c #494949",
", 	c #818181",
"' 	c #BEBEBE",
") 	c #FBFBFB",
"! 	c #E5E5E5",
"~ 	c #4E4E4E",
"{ 	c #202020",
"] 	c #212121",
"^ 	c #2F2F2F",
"/ 	c #474747",
"( 	c #595959",
"_ 	c #626262",
": 	c #505050",
"< 	c #3C3C3C",
"[ 	c #929292",
"} 	c #F1F1F1",
"| 	c #787878",
"1 	c #1E1E1E",
"2 	c #414141",
"3 	c #5E5E5E",
"4 	c #656565",
"5 	c #585858",
"6 	c #606060",
"7 	c #4C4C4C",
"8 	c #2C2C2C",
"9 	c #222222",
"0 	c #575757",
"a 	c #939393",
"b 	c #D6D6D6",
"c 	c #262626",
"d 	c #535353",
"e 	c #5F5F5F",
"f 	c #515151",
"g 	c #313131",
"h 	c #424242",
"i 	c #333333",
"j 	c #2A2A2A",
"k 	c #4B4B4B",
"l 	c #616161",
"m 	c #D1D1D1",
"n 	c #0B0B0B",
"o 	c #181818",
"p 	c #565656",
"q 	c #393939",
"r 	c #0F0F0F",
"s 	c #191919",
"t 	c #141414",
"u 	c #1C1C1C",
"v 	c #3D3D3D",
"w 	c #353535",
"x 	c #949494",
"y 	c #0A0A0A",
"z 	c #3E3E3E",
"A 	c #727272",
"B 	c #272727",
"C 	c #151515",
"D 	c #050505",
"E 	c #080808",
"F 	c #BBBBBB",
"G 	c #0C0C0C",
"H 	c #363636",
"I 	c #737373",
"J 	c #060606",
"K 	c #6B6B6B",
"L 	c #CDCDCD",
"M 	c #D9D9D9",
"N 	c #B6B6B6",
"O 	c #6C6C6C",
"P 	c #5B5B5B",
"Q 	c #121212",
"R 	c #252525",
"S 	c #5D5D5D",
"T 	c #373737",
"U 	c #101010",
"V 	c #303030",
"W 	c #C7C7C7",
"X 	c #B9B9B9",
"Y 	c #BCBCBC",
"Z 	c #E8E8E8",
"` 	c #636363",
" .	c #5A5A5A",
"..	c #989898",
"+.	c #FAFAFA",
"@.	c #AAAAAA",
"#.	c #ADADAD",
"$.	c #5C5C5C",
"%.	c #EBEBEB",
"&.	c #B4B4B4",
"*.	c #878787",
"=.	c #D0D0D0",
"-.	c #777777",
";.	c #A2A2A2",
">.	c #DEDEDE",
",.	c #FCFDFC",
"'.	c #E1E1E1",
").	c #828282",
"!.	c #888888",
"~.	c #C8C8C8",
"{.	c #A6A6A6",
"].	c #A0A0A0",
"^.	c #E6E6E6",
"/.	c #F9F9F9",
"(.	c #CCCCCC",
"_.	c #AEAEAE",
":.	c #EFEFEF",
"<.	c #F2F2F2",
". . . . . . . . . . . . . . . . ",
". . . + @ # $ % + . . . . . . . ",
". % & * = - ; > , ' ) . . . . . ",
"! ~ { ] ^ / ( _ : < [ } . . . . ",
"| { 1 2 3 4 5 6 7 8 9 0 a b . . ",
"c ] * d e f g h < i j 8 k l m . ",
"n o < p q ^ r ] s t t u v w x . ",
"y t z A B C D E = j B ^ j g F . ",
"u G H I i J n K @ m L M N O m . ",
"P Q R S T U V W . . . . . X Y . ",
"Z ` v  .f u ... . . . . . +.@.. ",
". ! 0 #.. $.%.. . . . . . . &.. ",
". . *.=.. -.;.Z +.. . . . . >.,.",
",.'.).!.~.{.3 ].^.. . . . . +.,.",
"/.M '.(._.:.>.%.<.+ . . . . ,.,.",
",.,.,.,.,.,.. . . . . . . ,.,.,."};
