/* XPM */
static char *kiwix[] = {
/* columns rows colors chars-per-pixel */
"32 32 61 1",
"  c black",
". c #010101",
"X c #020202",
"o c gray1",
"O c #040404",
"+ c gray2",
"@ c #060606",
"# c gray3",
"$ c #0B0B0B",
"% c #0C0C0C",
"& c gray5",
"* c #0E0E0E",
"= c gray6",
"- c #101010",
"; c #111111",
": c gray7",
"> c #131313",
", c gray8",
"< c #161616",
"1 c gray9",
"2 c #181818",
"3 c #191919",
"4 c #1B1B1B",
"5 c #1D1D1D",
"6 c gray12",
"7 c #202020",
"8 c gray13",
"9 c #222222",
"0 c #232323",
"q c #252525",
"w c gray15",
"e c #272727",
"r c #282828",
"t c gray16",
"y c #2A2A2A",
"u c gray17",
"i c #2C2C2C",
"p c #2D2D2D",
"a c gray18",
"s c #2F2F2F",
"d c #313131",
"f c #323232",
"g c #373737",
"h c gray22",
"j c #393939",
"k c #3A3A3A",
"l c #3C3C3C",
"z c #3E3E3E",
"x c #3F3F3F",
"c c #414141",
"v c #434343",
"b c gray28",
"n c gray30",
"m c #5D5D5D",
"M c gray52",
"N c #959595",
"B c gray65",
"V c #A7A7A7",
"C c gray84",
"Z c gray100",
"A c None",
/* pixels */
"AAAAAAAAAAAAAAAAAAAAAAAAAAAAAAAA",
"AAAAAAAAAAAAAAAAAAAAAAAAAAAAAAAA",
"AAAAAAAAAAAAAAAAAAAAAAAAAAAAAAAA",
"AAAAAAAAAAAAAAAAAAAAAAAAAAAAAAAA",
"AAAAAAAAAAAAAAAAAAAAAAAAAAAAAAAA",
"AAAAAA1X. .XOjAAAAAAAAAAAAAAAAAA",
"AAAA6         $aAAAAAAAAAAAAAAAA",
"AAAO            =AAAAAAAAAAAAAAA",
"AA,              %& .3AAAAAAAAAA",
"A5                  o  fAAAAAAAA",
"A@                 MCm @AAAAAAAA",
"A                 .ZNVX aAAAAAAA",
"s                  B #  pAAAAAAA",
"q                   .   2AAAAAAA",
"l                        -AAAAAA",
"AO                   .,AA<=AAAAA",
"A@        ;6w9w5X  XeAAAAAj>AAAA",
"Av       AAAAAAAAAAAAAAAAAAh5AAA",
"AAw      AAAAAAAAAAAAn7-yAAAzyAA",
"AAA;  O-.AAAAAAAAAAA4     uAA:xA",
"AAAA  iA1AAAAAAAAAA2       aAA*A",
"AAAA0 AAesAAAAAAAAc        +AAlg",
"AAAAA AAA AAAAAAAA#         yAAA",
"AAAAA yAA iAAAAAAA@         xAAA",
"AAAAAw1AA  5tlAAAA@         eAAA",
"AAAAAA xAA66zwAAAAk        oAAAA",
"AAAAAA  #tObAAcAAAA;       9AAAA",
"AAAAAyAAupAAAAAAAAAA2     rAAAAA",
"AAAAAjAAAAdAAAAAAAAAAl:@8AAAAAAA",
"AAAAAAAAAAAAAAAAAAAAAAAAAAAAAAAA",
"AAAAAAAAAAAAAAAAAAAAAAAAAAAAAAAA",
"AAAAAAAAAAAAAAAAAAAAAAAAAAAAAAAA"
};
