<?xml version="1.0" ?><!DOCTYPE svg  PUBLIC '-//W3C//DTD SVG 1.1//EN'  'http://www.w3.org/Graphics/SVG/1.1/DTD/svg11.dtd' [
	<!ENTITY stroke_color "#010101">
	<!ENTITY fill_color "#FFFFFF">
]>
<svg
   xmlns:dc="http://purl.org/dc/elements/1.1/"
   xmlns:cc="http://creativecommons.org/ns#"
   xmlns:rdf="http://www.w3.org/1999/02/22-rdf-syntax-ns#"
   xmlns:svg="http://www.w3.org/2000/svg"
   xmlns="http://www.w3.org/2000/svg"
   version="1.1"
   width="75"
   height="75"
   viewBox="0 0 75 75"
   id="Kiwix"
   xml:space="preserve"
   style="display:inline"><metadata
   id="metadata12"><rdf:RDF><cc:Work
       rdf:about=""><dc:format>image/svg+xml</dc:format><dc:type
         rdf:resource="http://purl.org/dc/dcmitype/StillImage" /><dc:title></dc:title></cc:Work></rdf:RDF></metadata><defs
   id="defs10" />
<g
   id="layer1"
   style="display:inline" /><g
   id="layer7"
   style="display:inline"><path
     d="m 11.402097,67.48699 c -1.355014,-1.791174 -1.39858,-3.683646 -1.502602,-5.833631 0.190161,-0.380321 0.422484,-2.367027 0.618718,-2.563262 1.660983,-3.102888 2.892836,-6.831272 3.977478,-9.63433 0.368014,-0.736027 0.610356,-4.499443 0.883884,-4.77297 0.0049,-2.763225 0.08521,-5.732375 0.08839,-8.131728 0.225374,-4.661476 -0.217098,-11.151052 -0.353552,-16.882175 0.299774,-4.583234 -0.127531,-8.71126 3.358764,-11.75565 0.193345,-0.1933449 0.366382,-0.5303297 0.883884,-0.5303297 0.294947,0 1.162944,0.3674497 1.237436,0.4419417 0.871371,0.8713708 1.216322,2.079091 1.856155,3.358757 0.801875,1.603748 0.883884,6.014273 0.883884,9.369165 -0.02492,4.106571 0.235517,15.063793 2.12132,16.528621 0.32049,0.640979 2.639125,0.359816 3.358757,0 11.074799,-6.025843 15.857632,-19.990819 25.544234,-26.251339 1.686891,-1.0895268 4.001212,-3.2188327 5.656854,-3.270369 3.400827,0.4907387 1.399216,5.676206 0.883884,7.247844 -5.716912,7.692102 -13.402935,17.728066 -19.533826,23.953242 -1.14173,1.489954 -1.734159,3.175673 -2.474874,4.86136 -0.176831,1.529289 0.100617,2.295619 0.618716,3.71231 0.920645,0.920645 3.403128,1.502602 5.214913,1.502602 0.671012,0 4.809495,-0.05186 4.861359,0 3.571999,0.32618 7.184451,-0.30738 10.606602,0.17678 1.324157,0.500613 1.710759,2.176295 1.590987,3.71231 -0.105317,0.587725 -0.898166,1.125323 -1.237437,1.502602 -1.844633,0.922317 -3.368553,1.372469 -5.303301,1.856156 -7.634561,1.22269 -16.174321,2.348443 -22.98097,5.391691 -5.071709,1.254646 -15.831237,10.558374 -20.859657,6.010402 z"
     id="path3935"
     fill="&fill_color;" 
     stroke="&stroke_color;"
     stroke-width="3.5" /></g></svg>
