/* XPM */
static char * kiwix_xpm[] = {
"32 32 157 2",
"  	c None",
". 	c #FFFFFF",
"+ 	c #FDFDFD",
"@ 	c #DEDEDE",
"# 	c #B7B7B7",
"$ 	c #9F9F9F",
"% 	c #9D9D9D",
"& 	c #B2B2B2",
"* 	c #D7D7D7",
"= 	c #F9F9F9",
"- 	c #CCCCCC",
"; 	c #727272",
"> 	c #272727",
", 	c #080808",
"' 	c #020202",
") 	c #010101",
"! 	c #060606",
"~ 	c #1D1D1D",
"{ 	c #606060",
"] 	c #B3B3B3",
"^ 	c #A5A5A5",
"/ 	c #333333",
"( 	c #000000",
"_ 	c #121212",
": 	c #777777",
"< 	c #E7E7E7",
"[ 	c #F4F4F4",
"} 	c #EDEDED",
"| 	c #B1B1B1",
"1 	c #252525",
"2 	c #444444",
"3 	c #4B4B4B",
"4 	c #353535",
"5 	c #5E5E5E",
"6 	c #AEAEAE",
"7 	c #EAEAEA",
"8 	c #4A4A4A",
"9 	c #0E0E0E",
"0 	c #171717",
"a 	c #151515",
"b 	c #8E8E8E",
"c 	c #A8A8A8",
"d 	c #111111",
"e 	c #9E9E9E",
"f 	c #2D2D2D",
"g 	c #C0C0C0",
"h 	c #757575",
"i 	c #C5C5C5",
"j 	c #747474",
"k 	c #1C1C1C",
"l 	c #888888",
"m 	c #FBFBFB",
"n 	c #5D5D5D",
"o 	c #424242",
"p 	c #0A0A0A",
"q 	c #6F6F6F",
"r 	c #FCFCFC",
"s 	c #686868",
"t 	c #040404",
"u 	c #262626",
"v 	c #A4A4A4",
"w 	c #909090",
"x 	c #323232",
"y 	c #8A8A8A",
"z 	c #7A7A7A",
"A 	c #474747",
"B 	c #A3A3A3",
"C 	c #292929",
"D 	c #464646",
"E 	c #535353",
"F 	c #4E4E4E",
"G 	c #3F3F3F",
"H 	c #2E2E2E",
"I 	c #232323",
"J 	c #212121",
"K 	c #343434",
"L 	c #717171",
"M 	c #C7C7C7",
"N 	c #B8B8B8",
"O 	c #E1E1E1",
"P 	c #F6F6F6",
"Q 	c #FAFAFA",
"R 	c #F8F8F8",
"S 	c #F3F3F3",
"T 	c #E2E2E2",
"U 	c #E0E0E0",
"V 	c #EBEBEB",
"W 	c #EEEEEE",
"X 	c #767676",
"Y 	c #BABABA",
"Z 	c #5F5F5F",
"` 	c #DDDDDD",
" .	c #7C7C7C",
"..	c #404040",
"+.	c #8C8C8C",
"@.	c #F0F0F0",
"#.	c #B9B9B9",
"$.	c #6E6E6E",
"%.	c #222222",
"&.	c #5A5A5A",
"*.	c #575757",
"=.	c #F7F7F7",
"-.	c #555555",
";.	c #6C6C6C",
">.	c #989898",
",.	c #161616",
"'.	c #C4C4C4",
").	c #E3E3E3",
"!.	c #545454",
"~.	c #828282",
"{.	c #050505",
"].	c #A2A2A2",
"^.	c #F1F1F1",
"/.	c #CBCBCB",
"(.	c #B5B5B5",
"_.	c #1B1B1B",
":.	c #C3C3C3",
"<.	c #565656",
"[.	c #AAAAAA",
"}.	c #626262",
"|.	c #D5D5D5",
"1.	c #939393",
"2.	c #FEFEFE",
"3.	c #656565",
"4.	c #CACACA",
"5.	c #E6E6E6",
"6.	c #2A2A2A",
"7.	c #F5F5F5",
"8.	c #878787",
"9.	c #4F4F4F",
"0.	c #D9D9D9",
"a.	c #2B2B2B",
"b.	c #B4B4B4",
"c.	c #F2F2F2",
"d.	c #696969",
"e.	c #0C0C0C",
"f.	c #929292",
"g.	c #454545",
"h.	c #616161",
"i.	c #949494",
"j.	c #BDBDBD",
"k.	c #8D8D8D",
"l.	c #0B0B0B",
"m.	c #ACACAC",
"n.	c #6B6B6B",
"o.	c #595959",
"p.	c #7B7B7B",
"q.	c #BFBFBF",
"r.	c #E9E9E9",
"s.	c #ECECEC",
"t.	c #090909",
"u.	c #7D7D7D",
"v.	c #A7A7A7",
"w.	c #EFEFEF",
"x.	c #505050",
"y.	c #383838",
"z.	c #D4D4D4",
"                                                                ",
"                                                                ",
"                                                                ",
"                  . . . .                                       ",
"            . . . . . . . . . .                                 ",
"        . . . + @ # $ % & * = . . .                             ",
"      . . . - ; > , ' ) ! ~ { ] . . . . . .                     ",
"      . . ^ / ( ( ( ( ( ( ( ( _ : < [ } = . . .                 ",
"    . . | 1 ( ( ( ( ( ( ( ( ( ( ( 2 3 4 5 6 . . .               ",
"    . 7 8 ( ( ( ( ( ( ( ( ( ( ( ( ( ( 9 0 a b . .               ",
"  . . c ! ( ( ( ( ( ( ( ( ( ( ( ( ( d e ] f ~ g . .             ",
"  . + h ( ( ( ( ( ( ( ( ( ( ( ( ( ( 1 i j k ( l . .             ",
"  . m n ( ( ( ( ( ( ( ( ( ( ( ( ( ( ( o p ( ( q . . .           ",
"  . r s ( ( ( ( ( ( ( ( ( ( ( ( ( ( ( ( ( ( t u v . .           ",
"  . . w ( ( ( ( ( ( ( ( ( ( ( ( ( ( ( ( ( x y z A B . .         ",
"  . . - k ( ( ( ( ( ' C D E F G H I J K L M . . N s c . .       ",
"    . + j ( ( ( ( ( E O P Q R S 7 T U V + 7 O W . M X Y . .     ",
"    . . * 2 ( ( ( t Z r . . . . . . . `  .4 I ..+.@.#.$.* . .   ",
"      . . #.%.( &.z *.=..       . . U -.( ( ( ( ) ;.P >.L m .   ",
"        . + q ,.'.).!.< . .     . . ~.( ( ( ( ( ( {.].^.q /..   ",
"        . . (._.:.P <.[.. . . . . @.G ( ( ( ( ( ( ( }.Q '.|..   ",
"          . W 2 1.2.3.3 4.W m . . 5.6.( ( ( ( ( ( ( 8 7.. . .   ",
"          . . 8.9.0. .) a.-.b.+ . c.D ( ( ( ( ( ( ( d.r . .     ",
"          . . & e.5 f.g.h.i.b j.. . k.) ( ( ( ( ( l.m.. .       ",
"          . . $ n.o.o p.q.Q 7.r.. . s.3.) ( ( ( t.u.. .         ",
"          . . v.5.[ (.>.- . . . . . . w.1.x.y.&.B r . .         ",
"          . + z.. . . c.S .         . . . P w.R . . .           ",
"            . + . . . . .             . . . . . .               ",
"                                                                ",
"                                                                ",
"                                                                ",
"                                                                "};
